<?xml version="1.0" encoding="utf-8"?>
<!-- Generator: Adobe Illustrator 26.0.1, SVG Export Plug-In . SVG Version: 6.00 Build 0)  -->
<svg version="1.1" id="Layer_1" xmlns="http://www.w3.org/2000/svg" xmlns:xlink="http://www.w3.org/1999/xlink" x="0px" y="0px"
	 viewBox="0 0 93 73" style="enable-background:new 0 0 93 73;" xml:space="preserve">
<style type="text/css">
	.st0{fill:#FFFFFF;}
</style>
<g>
	<g>
		<path class="st0" d="M36,30.4c-9.5,0-18.4-0.4-25-1.2C1.3,28,0,26.7,0,25.6c0-1,1.2-2.4,10.9-3.5c6.7-0.8,15.6-1.2,25-1.2
			s18.3,0.4,25,1.2c9.7,1.1,10.9,2.5,10.9,3.5c0,1-1.2,2.4-10.9,3.5C54.3,29.9,45.4,30.4,36,30.4z M1.3,25.6
			c0.1,0.1,0.5,0.6,2.8,1.1c1.8,0.5,4.4,0.9,7.6,1.2c6.6,0.7,15.2,1.1,24.4,1.1s17.8-0.4,24.4-1.1c3.2-0.4,5.7-0.8,7.6-1.2
			c2.2-0.6,2.7-1,2.8-1.1c-0.1-0.1-0.5-0.6-2.8-1.1c-1.8-0.5-4.4-0.9-7.6-1.2c-6.6-0.7-15.2-1.1-24.4-1.1c-9.1,0-17.8,0.4-24.4,1.1
			c-3.2,0.4-5.7,0.8-7.6,1.2C1.8,25.1,1.4,25.5,1.3,25.6L1.3,25.6z"/>
		<path class="st0" d="M35.9,73c-4.1,0-8.8-0.4-12.5-1.1c-1.9-0.3-3.4-0.7-4.5-1.1c-0.9-0.3-2.1-0.9-2.1-1.8h1.2c0,0,0,0,0,0
			c0.1,0.3,1.4,1.1,6,1.9c3.9,0.6,7.9,1,11.9,1c3.9,0,8.3-0.3,11.9-0.9c5.5-0.8,6-1.7,6-1.7c0,0,0,0,0,0H55c0,0.8-0.7,1.9-6.6,2.8
			C44.8,72.6,40.1,73,35.9,73z"/>
		<path class="st0" d="M35.9,69.6c-5,0-9.6-0.4-13.2-1c-1.7-0.3-3.1-0.7-4.1-1.1c-1.2-0.5-1.8-1.1-1.8-1.9h1.2
			c0,0.2,0.8,1.1,4.9,1.8c3.4,0.6,8,1,12.9,1c5,0,9.6-0.3,12.9-0.9c4.7-0.8,4.9-1.7,4.9-1.7H55c0,1.3-1.9,2.2-5.9,2.9
			C45.7,69.3,41,69.6,35.9,69.6z"/>
		<path class="st0" d="M18.1,65.6h-1.2V69h1.2V65.6z"/>
		<path class="st0" d="M55,65.8h-1.2v3.4H55V65.8z"/>
		<path class="st0" d="M54.7,66.3l-0.7-1c0.1,0,6.5-4.2,11.9-13.1s4.8-26.4,4.8-26.5l1.2,0c0.1,3.4-0.1,6.7-0.4,10.1
			c-0.7,7.5-2.2,13.2-4.6,17.1C61.5,62,55,66.2,54.7,66.3z"/>
		<path class="st0" d="M17.2,66.4C16.9,66.2,10.5,62,5,52.8c-2.3-3.9-3.9-9.7-4.6-17.1C0.1,32.3-0.1,29,0,25.6l1.2,0
			c0,0.2-0.6,17.6,4.8,26.5c5.3,8.9,11.8,13.1,11.9,13.1L17.2,66.4z"/>
		<path class="st0" d="M67.2,51.8L67,50.6c0,0,4.5-0.6,7.1-1.5c2.4-0.8,6.9-2.8,9.6-5.3c1.3-1.3,2.5-3.9,2.3-6.4
			c-0.2-1.9-1.3-3.5-3-4.5c-4.7-2.8-11.5,2-11.5,2.1l-0.7-1c1.3-0.9,2.8-1.7,4.3-2.3c3.3-1.3,6.3-1.2,8.6,0.1
			c2.1,1.2,3.3,3.1,3.6,5.4c0.3,3.1-1.1,6-2.6,7.4c-2.8,2.6-7.5,4.7-10,5.5C71.8,51.2,67.4,51.8,67.2,51.8z"/>
		<path class="st0" d="M63.9,57l-0.1-1.2c0,0,3.4-0.3,5.6-1c0.5-0.2,1.1-0.3,1.7-0.5c2.6-0.6,7-1.7,14.1-5.7
			c4.1-2.3,6.5-6.1,6.6-10.3c0.1-3.7-1.7-6.9-4.7-8.8c-6.4-4-15.4,0.7-15.5,0.8L71,29.2c1.8-0.9,3.7-1.6,5.7-2
			c4.3-1,8.2-0.5,11.1,1.3c3.4,2.1,5.3,5.8,5.2,9.9c-0.1,2.2-0.7,4.3-1.8,6.2c-1.3,2.1-3.1,3.8-5.4,5.1c-7.2,4.1-11.7,5.2-14.4,5.9
			c-0.7,0.2-1.2,0.3-1.6,0.4C67.5,56.7,64.1,57,63.9,57z"/>
		<path d="M19.5,29.2c0,0-4.6-4.8-1.6-10.4c0,0-1.6-2.3-2.1-7.9c-0.5-5.6,1-10.2,1-10.2c7.9,2.4,11.7,7.2,11.7,7.2
			c1.9-0.4,3.8-0.6,5.7-0.5c3.1,0.1,6.7,0.9,6.7,0.9S44,3.8,52.3,1.4c0,0,3.4,7.3,1.7,12.5c-1.7,5.4-1.6,5.2-1.6,5.2
			s2.8,4.2-0.3,10.1c0,0-11,0.7-16.8,0.7S19.5,29.2,19.5,29.2z"/>
		<path class="st0" d="M35.3,30.5c-5.7,0-15.8-0.7-15.9-0.7l-0.2,0L19,29.6c-0.9-1-1.6-2.1-2.1-3.3c-1-2.5-1-5.1,0.2-7.5
			c-0.5-0.8-1.6-3.3-2-7.9c-0.5-5.6,1-10.2,1-10.4L16.3,0l0.6,0.2c6.9,2.1,10.8,6,11.8,7.1c1.8-0.4,3.6-0.5,5.5-0.4
			c2.5,0.1,5.4,0.6,6.4,0.8c0.9-1.1,4.4-4.7,11.6-6.8l0.5-0.2l0.2,0.5C53.5,2.5,54,4,54.4,5.5c0.9,3.4,1,6.3,0.2,8.5
			c-1.1,3.4-1.4,4.5-1.5,4.9c0.6,1,2.5,5.1-0.4,10.5l-0.2,0.3l-0.3,0C52,29.8,41,30.5,35.3,30.5z M19.8,28.6
			c1.6,0.1,10.4,0.7,15.5,0.7c5.1,0,14.5-0.6,16.4-0.7c2.5-5,0.5-8.6,0.2-9.1c-0.1-0.1-0.2-0.3-0.1-0.6c0-0.1,0.1-0.3,0.2-0.6
			c0.3-0.9,0.7-2.4,1.4-4.5c1.3-4.2-0.8-9.9-1.5-11.6c-7.6,2.4-10.6,6.5-10.6,6.5L41.1,9l-0.4-0.1c0,0-3.6-0.7-6.6-0.9
			c-1.8-0.1-3.7,0.1-5.5,0.5l-0.4,0.1L28,8.3c0,0-3.6-4.4-10.8-6.8c-0.4,1.4-1.2,5.1-0.8,9.4c0.4,4.3,1.5,6.8,2,7.6l0.2,0.3
			l-0.2,0.3C15.9,23.7,19,27.7,19.8,28.6z"/>
		<path class="st0" d="M26.8,18.6c-0.8-0.3-1.7,1.3-1.7,2.7c0,1.3,1.7,1.6,2.3,0.6C28.1,20.9,28.3,19.2,26.8,18.6z"/>
		<path class="st0" d="M43,19.6c1.4,0,2.6,2.5,1.1,3.6c-1.5,1.1-2.5-0.8-2.3-1.8C42,20.4,42,19.6,43,19.6z"/>
		<path class="st0" d="M35.1,23.5c3,0,4.5,0.8,4.5,0.8s-3.7,2.5-4.5,2.5c-0.8,0-4.6-2.6-4.6-2.6S32.2,23.5,35.1,23.5z"/>
		<path class="st0" d="M27.5,14.7c-0.3-0.1-0.7-0.1-1-0.1c-0.3,0-0.7,0.1-0.9,0.3c-0.1,0-0.1,0.1-0.1,0.2c0,0.1,0,0.1,0,0.2
			c0,0.1,0,0.1,0.1,0.2c0,0.1,0.1,0.1,0.2,0.1c0.3,0.2,0.6,0.1,1,0.1c0.4,0,0.8-0.1,1.2-0.2c0,0,0.1,0,0.1-0.1c0,0,0-0.1,0-0.1
			c0,0,0-0.1-0.1-0.1c0,0-0.1,0-0.1,0c-0.3,0.1-0.7,0.2-1.1,0.2c-0.2,0-0.4,0-0.6,0c-0.1,0-0.3,0-0.3-0.1c0-0.1,0.1-0.1,0.1-0.1
			c0.2-0.1,0.3-0.1,0.5-0.1c0.3-0.1,0.7,0,1,0.1C27.6,15.1,27.7,14.8,27.5,14.7L27.5,14.7z"/>
		<path class="st0" d="M41.7,15.2c0.3-0.1,0.7-0.1,1-0.1c0.2,0,0.3,0.1,0.4,0.1c0.1,0,0.2,0.1,0.2,0.2c0,0.1-0.1,0.1-0.2,0.1
			c-0.1,0-0.3,0-0.4,0c-0.4,0-0.7-0.1-1.1-0.2c-0.2-0.1-0.3,0.3-0.1,0.4c0.3,0.1,0.7,0.2,1,0.2c0.3,0,0.6,0.1,0.9-0.1
			c0.1,0,0.1-0.1,0.2-0.1c0-0.1,0.1-0.1,0.1-0.2c0-0.1,0-0.1,0-0.2c0-0.1-0.1-0.1-0.1-0.2c-0.2-0.2-0.5-0.3-0.8-0.4
			c-0.4-0.1-0.8,0-1.1,0.1C41.4,14.9,41.5,15.3,41.7,15.2L41.7,15.2z"/>
	</g>
</g>
</svg>
